<svg width="1437" height="303" viewBox="0 0 1437 303" fill="none" xmlns="http://www.w3.org/2000/svg">
<path fill-rule="evenodd" clip-rule="evenodd" d="M0 195.064L59.875 171.078C119.75 147.092 239.5 99.1204 359.25 69.1381C479 39.1558 598.75 27.1629 718.5 15.17C838.25 3.17706 958 -8.81586 1077.75 9.17352C1197.5 27.1629 1317.25 75.1346 1377.12 99.1204L1437 123.106V303H1377.12C1317.25 303 1197.5 303 1077.75 303C958 303 838.25 303 718.5 303C598.75 303 479 303 359.25 303C239.5 303 119.75 303 59.875 303H0V195.064Z" fill="#EBA646"/>
</svg>
