<svg width="1440" height="299" viewBox="0 0 1440 299" fill="none" xmlns="http://www.w3.org/2000/svg">
<path fill-rule="evenodd" clip-rule="evenodd" d="M5.14341e-06 265.778H26.4C52.8 265.778 106.8 265.778 159.6 238.093C213.6 210.407 266.4 155.037 320.4 121.815C373.2 88.5926 427.2 77.5185 480 77.5185C532.8 77.5185 586.8 88.5926 639.6 99.6667C693.6 110.741 746.4 121.815 800.4 132.889C853.2 143.963 907.2 155.037 960 155.037C1012.8 155.037 1066.8 143.963 1119.6 121.815C1173.6 99.6667 1226.4 66.4445 1280.4 44.2963C1333.2 22.1482 1387.2 11.0741 1413.6 5.53704L1440 0V299H1413.6C1387.2 299 1333.2 299 1280.4 299C1226.4 299 1173.6 299 1119.6 299C1066.8 299 1012.8 299 960 299C907.2 299 853.2 299 800.4 299C746.4 299 693.6 299 639.6 299C586.8 299 532.8 299 480 299C427.2 299 373.2 299 320.4 299C266.4 299 213.6 299 159.6 299C106.8 299 52.8 299 26.4 299H5.14341e-06V265.778Z" fill="#111111"/>
</svg>
